<svg xmlns="http://www.w3.org/2000/svg" viewBox="0 0 500 500"><g id="freepik--Shadow--inject-11"><ellipse id="freepik--path--inject-11" cx="250" cy="416.24" rx="193.89" ry="11.32" style="fill:#f5f5f5"></ellipse></g><g id="freepik--Books--inject-11"><path d="M251.63,176.53V413.84a2,2,0,0,1-2,2H136.87a2,2,0,0,1-2-2V176.53a2,2,0,0,1,2-2H249.62A2,2,0,0,1,251.63,176.53Z" style="fill:#3D287E"></path><path d="M248.67,176.53V413.84a2,2,0,0,1-2,2H136.87a2,2,0,0,1-2-2V176.53a2,2,0,0,1,2-2H246.66A2,2,0,0,1,248.67,176.53Z" style="isolation:isolate;opacity:0.2"></path><rect x="141.82" y="178.05" width="103.85" height="234.26" style="fill:#3D287E"></rect><rect x="141.82" y="178.05" width="103.85" height="234.26" style="fill:#fff;isolation:isolate;opacity:0.7000000000000001"></rect><g style="opacity:0.2"><polygon points="242.04 177.83 241.06 366.01 240.07 177.83 242.04 177.83"></polygon><polygon points="235.55 412.56 236.54 206.51 237.52 412.56 235.55 412.56"></polygon><polygon points="233.76 177.83 232.78 393.94 231.79 177.83 233.76 177.83"></polygon><polygon points="227.12 412.31 228.1 223.18 229.09 412.31 227.12 412.31"></polygon></g><path d="M224,176.53V413.84a2,2,0,0,1-2,2H133.91a2,2,0,0,1-2-2V176.53a2,2,0,0,1,2-2H222A2,2,0,0,1,224,176.53Z" style="fill:#3D287E"></path><path d="M221.08,176.53V413.84a2,2,0,0,1-2,2H133.91a2,2,0,0,1-2-2V176.53a2,2,0,0,1,2-2h85.15A2,2,0,0,1,221.08,176.53Z" style="fill:#fff;isolation:isolate;opacity:0.2"></path><g style="isolation:isolate;opacity:0.2"><rect x="142.7" y="198.33" width="66.24" height="19.48"></rect><rect x="164.67" y="188.59" width="22.3" height="2.73"></rect><rect x="148.41" y="226.61" width="54.81" height="3.25"></rect><rect x="145.92" y="385.23" width="59.79" height="9.31"></rect><rect x="165.43" y="401.64" width="20.77" height="1.64"></rect></g><polygon points="219.19 186.39 206.32 415.76 159.21 415.76 169.01 255.34 219.19 186.39" style="opacity:0.1"></polygon><path d="M219.19,186.39,192.72,413.91a2.29,2.29,0,0,1-2.24,1.95H107.31c-15.44,0-34.28-3.17-34.12-8.84l29.24-220.63a2.26,2.26,0,0,1,2.23-1.93H217.4A1.72,1.72,0,0,1,219.19,186.39Z" style="fill:#263238"></path><path d="M219.19,186.39,192.72,413.91a2.29,2.29,0,0,1-2.24,1.95H107.31c-15.44,0-34.28-3.17-34.12-8.84l29.24-220.63a2.26,2.26,0,0,1,2.23-1.93H217.4A1.72,1.72,0,0,1,219.19,186.39Z" style="fill:#fff;isolation:isolate;opacity:0.30000000000000004"></path><path d="M216.23,186.39,189.77,413.91a2.29,2.29,0,0,1-2.24,1.95H107.31c-15.44,0-34.28-3.17-34.12-8.84l29.24-220.63a2.26,2.26,0,0,1,2.23-1.93H214.44A1.72,1.72,0,0,1,216.23,186.39Z" style="isolation:isolate;opacity:0.2"></path><polygon points="186.93 412.46 91.67 412.46 109.21 187.85 189.85 182.1 213.06 187.85 186.93 412.46" style="fill:#3D287E"></polygon><polygon points="213.06 187.86 186.93 412.46 91.67 412.46 84.55 399.86 109.21 187.86 189.85 182.1 199.55 184.51 201.51 184.99 207.61 186.51 209.54 186.98 213.06 187.86" style="fill:#fff;isolation:isolate;opacity:0.7000000000000001"></polygon><path d="M186.93,412.46H91.67l-7.12-12.6c16.48-.14,74,4.25,74,4.25Z" style="isolation:isolate;opacity:0.2"></path><path d="M80.79,407.9a18.28,18.28,0,0,0,11.51,5.16s1.29-4.27-1.27-5.63S80.79,407.9,80.79,407.9Z" style="fill:#263238"></path><g style="opacity:0.2"><polygon points="209.54 186.98 187.49 368.06 207.61 186.51 209.54 186.98"></polygon><polygon points="200.75 215.14 179.05 410.13 177.17 409.58 200.75 215.14"></polygon><polygon points="201.51 184.99 175.99 395.77 199.55 184.51 201.51 184.99"></polygon><polygon points="190.46 231.13 170.87 407.73 169.01 407.18 190.46 231.13"></polygon></g><path d="M191.79,179.49,165.32,407a2.28,2.28,0,0,1-2.23,1.94H75A1.74,1.74,0,0,1,73.18,407L99.65,179.49a2.29,2.29,0,0,1,2.24-1.94H190A1.73,1.73,0,0,1,191.79,179.49Z" style="fill:#263238"></path><path d="M191.79,179.49,165.32,407a2.28,2.28,0,0,1-2.23,1.94H75A1.74,1.74,0,0,1,73.18,407L99.65,179.49a2.29,2.29,0,0,1,2.24-1.94H190A1.73,1.73,0,0,1,191.79,179.49Z" style="fill:#fff;isolation:isolate;opacity:0.30000000000000004"></path><path d="M188.84,179.49,162.37,407a2.29,2.29,0,0,1-2.25,1.94H75A1.74,1.74,0,0,1,73.18,407L99.65,179.49a2.29,2.29,0,0,1,2.24-1.94H187A1.74,1.74,0,0,1,188.84,179.49Z" style="fill:#fff;isolation:isolate;opacity:0.2"></path><g style="isolation:isolate;opacity:0.2"><polygon points="172.08 219.07 105.84 219.07 108.02 200.39 174.26 200.39 172.08 219.07"></polygon><polygon points="153.07 193.66 130.77 193.66 131.07 191.05 153.37 191.05 153.07 193.66"></polygon><polygon points="165.03 230.63 110.21 230.63 110.58 227.51 165.39 227.51 165.03 230.63"></polygon><polygon points="149.15 388.52 89.36 388.52 90.4 379.59 150.18 379.59 149.15 388.52"></polygon><polygon points="128.66 396.89 107.89 396.89 108.08 395.32 128.85 395.32 128.66 396.89"></polygon></g></g><g id="freepik--character-1--inject-11"><path d="M129.54,185.74s2.78-.5,6.15,3.44,1.69,9.63,1.68,12.16-2.38,5.33,3.23,7.82,9.37,5.65,6.46,10.48,2,6.83-2.87,11-26.36,4.76-30.29-.23-1.82-10-2.05-11.72-4.1-2.61-6.27-7.88,2-7.5,2-10.15-3.53-5.15-2.62-11S127.27,177.54,129.54,185.74Z" style="fill:#2e353a"></path><path d="M114.21,230.16c-4.11,6.82-8,13.44-13.15,19.61-9,10.3-14.6-10.61-16.58-16.76a2.09,2.09,0,0,1,3.94-1.39,110.12,110.12,0,0,0,5,9.95c1.1,1.77,2.1,3.56,3.51,4.61.11.1.11-.11-.65-.19a2.09,2.09,0,0,0-1.05.24c-.15.08-.08,0,0,0,2.41-2.92,4.38-6.69,6.3-10.08s3.59-6.66,5.29-10c2.77-5,10.14-1,7.39,4.06Z" style="fill:#b97864"></path><path d="M112.94,226.73s-.17.94-.44,2.4q0,.13-.06.3c0,.14,0,.28-.08.43s0,.18,0,.28c-.1.54-.21,1.12-.32,1.74s-.23,1.26-.36,1.93l-.18,1c-.08.44-.17.88-.25,1.32,0,.14,0,.29-.08.44s-.07.43-.12.64c-.23,1.25-.46,2.46-.66,3.56,0,.26-.09.51-.14.75s-.09.46-.12.67,0,.26-.07.37-.08.43-.12.64-.07.39-.1.56-.06.34-.09.5-.06.3-.08.43a.55.55,0,0,0,0,.17,2.73,2.73,0,0,0-.06.31.2.2,0,0,0,0,.1,0,0,0,0,0,0,0l0,.19-1.85-1.58-6.19-5.25-3.78-3.22s7.64-12.35,11.71-12.33C109.36,223.09,112.94,226.7,112.94,226.73Z" style="fill:#3D287E"></path><path d="M112.94,226.73s-.17.94-.44,2.4q0,.13-.06.3c0,.14,0,.28-.08.43s0,.18,0,.28c-.1.54-.21,1.12-.32,1.74s-.23,1.26-.36,1.93l-.18,1c-.08.44-.17.88-.25,1.32,0,.14,0,.29-.08.44s-.07.43-.12.64c-.23,1.25-.46,2.46-.66,3.56,0,.26-.09.51-.14.75s-.09.46-.12.67,0,.26-.07.37-.08.43-.12.64-.07.39-.1.56-.06.34-.09.5-.06.3-.08.43a.55.55,0,0,0,0,.17,2.73,2.73,0,0,0-.06.31.2.2,0,0,0,0,.1,0,0,0,0,0,0,0l0,.19-1.85-1.58-6.19-5.25-3.78-3.22s7.64-12.35,11.71-12.33C109.36,223.09,112.94,226.7,112.94,226.73Z" style="fill:#fff;isolation:isolate;opacity:0.7000000000000001"></path><path d="M112.5,229.13q0,.13-.06.3c0,.14,0,.28-.08.43s0,.18,0,.28c-.1.54-.21,1.12-.32,1.74s-.23,1.26-.36,1.93l-.18,1c-.08.44-.17.88-.25,1.32,0,.14,0,.29-.08.44s-.07.43-.12.64c-.23,1.25-.46,2.46-.66,3.56,0,.26-.09.51-.14.75s-.09.46-.12.67,0,.26-.07.37-.08.43-.12.64-.07.39-.1.56-.07.35-.09.5-.06.3-.08.43a.55.55,0,0,0,0,.17,2.73,2.73,0,0,0-.06.31.2.2,0,0,0,0,.1,0,0,0,0,0,0,0l0,.19-1.85-1.59h0l-6.19-5.25C103.8,230.57,111.38,229.89,112.5,229.13Z" style="opacity:0.1"></path><path d="M125.89,355.35l-2.61,4.28s-1.92-1.19-5-3.13l-2.88-1.84c-2.88-1.84-6.34-4.08-10-6.48l-2.39-1.58c-12.65-8.42-23-16.36-22.7-20.31.44-6.63,6.08-18.91,13.7-31.07,5.09-8.12,9.31-14.65,9.31-14.65l15.45,10.93s-6,7-12.13,14.67c-7.18,9-14.61,18.95-13.14,20.09,1.13.87,6.8,5.95,13.08,11.63.38.33.76.68,1.14,1,3.39,3.06,6.89,6.23,9.9,9l2.43,2.21Z" style="fill:#263238"></path><path d="M120.11,350.1l-1.79,6.4c-3.82-2.43-9.4-6-15.25-9.9,1.24-3.07,2.66-6.52,3.57-8.71C111.33,342.12,116.37,346.69,120.11,350.1Z" style="isolation:isolate;opacity:0.2"></path><path d="M136.64,300.91l-3.73,9.25-.77,1.9-5.69,14.09-.64,1.61-3.76,9.3-4.37,10.83-2,5c-.06.58-.13,1.17-.22,1.76-3.21,24.35-18.07,55.47-18.07,55.47l-4.47-1.54c2.89-19.1,7.83-41.26,12.56-60.41.78-3.18,1.56-6.28,2.32-9.26.43-1.68.86-3.33,1.27-4.93.89-3.39,1.72-6.6,2.53-9.59.39-1.42.76-2.78,1.11-4.1.88-3.25,1.68-6.16,2.39-8.65s1.26-4.55,1.71-6.12c.66-2.3,1-3.57,1-3.57Z" style="fill:#263238"></path><path d="M120.72,350.24c-.59,0-.72,7.25-.72,7.25s4.17,4.83,4.84,9.24,3.46,2.2,3.85-2.63.7-8.54,1-12S126.85,350.6,120.72,350.24Z" style="fill:#3D287E"></path><path d="M121.32,362.08a.72.72,0,0,1-.79.11.76.76,0,0,1-.45-.43,3,3,0,0,1,0-1.64c-.36.57-.79,1.05-1.17,1s-.44-.18-.57-.52a1.14,1.14,0,0,1,0-.94c.49-.95,2.23-1.42,2.31-1.44a.14.14,0,0,1,.14,0l0,0h0a.16.16,0,0,1,0,.07,9.1,9.1,0,0,1,.68,3.07A1,1,0,0,1,121.32,362.08Zm-.9-.48a.45.45,0,0,0,.24.23c.28.09.36,0,.39,0,.3-.32,0-1.68-.35-2.78A4.79,4.79,0,0,0,120.42,361.6Zm-1.77-1.1c0,.1.12.28.22.28.33,0,1-1,1.47-2a3.21,3.21,0,0,0-1.66,1.11.79.79,0,0,0-.08.29A.8.8,0,0,0,118.65,360.5Z" style="fill:#3D287E"></path><path d="M99.36,406.79c0-.6-7.29-.13-7.29-.13s-4.47,4.55-8.81,5.57-1.92,3.63,2.94,3.63h12C101.66,415.86,99.5,412.92,99.36,406.79Z" style="fill:#3D287E"></path><path d="M87.61,408.34a.69.69,0,0,1-.18-.77.76.76,0,0,1,.39-.49,2.91,2.91,0,0,1,1.63-.18c-.59-.32-1.11-.7-1.13-1.08s.15-.46.48-.61a1.11,1.11,0,0,1,.94,0c1,.41,1.59,2.11,1.62,2.18a.2.2,0,0,1,0,.15l0,0h0l-.07.05a9.18,9.18,0,0,1-3,.92A1,1,0,0,1,87.61,408.34Zm.4-.93a.42.42,0,0,0-.21.25c-.07.29,0,.36,0,.39.34.28,1.68-.12,2.75-.58A4.78,4.78,0,0,0,88,407.41Zm.95-1.86c-.1.05-.26.14-.26.25,0,.32,1.06.89,2.14,1.3a3.23,3.23,0,0,0-1.25-1.57.79.79,0,0,0-.29-.06A.84.84,0,0,0,89,405.55Z" style="fill:#3D287E"></path><path d="M110.89,304.46l-1.11.92-15-11.66,2.3-4.7a15.7,15.7,0,0,0,.4,5.06C98.25,296.16,108.24,302.74,110.89,304.46Z" style="fill:#fff;isolation:isolate;opacity:0.7000000000000001"></path><path d="M82,320l11.58,6.27s11.24-11.92,15-16.91c1.17-1.55,6.11-8,6.11-8l-8.57,44.2,11.57,2.34c25.59-56.82,22.84-65.65,21.92-73.14a40,40,0,0,0-2.8-10.94,0,0,0,0,0,0,0L136.7,261l-29.47,1.1-.41,1.9-2,9.35s-8.72,15.11-11.59,20.52C83.87,311.45,82,320,82,320Z" style="fill:#263238"></path><path d="M137.41,265.31l-30.83-.21S102.1,239.82,108,223a32.13,32.13,0,0,1,4.67-1.62,50.21,50.21,0,0,1,22.71-.85,51.14,51.14,0,0,1,6,1.55S137.1,251.27,137.41,265.31Z" style="fill:#3D287E"></path><path d="M137.41,265.31l-30.83-.21S102.1,239.82,108,223a32.13,32.13,0,0,1,4.67-1.62,50.21,50.21,0,0,1,22.71-.85,51.14,51.14,0,0,1,6,1.55S137.1,251.27,137.41,265.31Z" style="fill:#fff;isolation:isolate;opacity:0.7000000000000001"></path><path d="M76.73,208.92l2.83-1.38,9.83,3.39,13.8-2.64,2.41,10.47s-.09,11.49-.75,11.58-15.53-.09-15.53-.09L82.09,225Z" style="fill:#e0e0e0"></path><polygon points="106.74 209.3 111.19 233.37 92.59 234.25 80.07 229.91 75.01 207.25 89.33 211.97 106.74 209.3" style="fill:#3D287E"></polygon><polygon points="89.33 211.97 92.59 234.25 111.19 233.38 106.74 209.3 89.33 211.97" style="fill:#fff;isolation:isolate;opacity:0.2"></polygon><path d="M84.13,232.35l1.43-8,4.86,6.47s.79,5.31-4,4.65Z" style="fill:#b97964"></path><polygon points="90.79 223.12 92.13 229.19 90.42 230.77 85.56 224.3 90.79 223.12" style="fill:#b97964"></polygon><path d="M135.39,220.53c0,1.39-1.85,3-4.36,4.31-.56.31-1.15.59-1.78.87-3.47,1.52-7.69,2.54-10.65,2.2a11.87,11.87,0,0,1-4.34-1.27,6.2,6.2,0,0,1-1.41-1c-1.43-1.35-1.56-3-.17-4.26.68-.18,1.41-.37,2.21-.54.54-.13,1.11-.25,1.71-.35a49.92,49.92,0,0,1,14.2-.63l1.39.16C133.24,220.15,134.3,220.32,135.39,220.53Z" style="fill:#b97964"></path><path d="M132.19,220a26.24,26.24,0,0,0-1.16,4.82c-.56.31-1.15.59-1.78.87a27.93,27.93,0,0,1,1.55-5.85Z" style="fill:#fff"></path><path d="M116.6,220.49a26.1,26.1,0,0,0-2.34,6.15,6.2,6.2,0,0,1-1.41-1,25.87,25.87,0,0,1,2-4.8C115.43,220.71,116,220.59,116.6,220.49Z" style="fill:#fff"></path><path d="M129.23,206.64c-1,4.31-2,12.18.89,14.89a116.81,116.81,0,0,1-12.39,5.27c-2.64-3.44-.85-4.66-.85-4.66,4.78-1.35,4.76-4.88,4-8.17Z" style="fill:#b97964"></path><path d="M125.84,209.63,120.91,214a12.7,12.7,0,0,1,.34,2.34c1.82-.35,4.37-2.46,4.62-4.38A6.49,6.49,0,0,0,125.84,209.63Z" style="opacity:0.2"></path><path d="M118,188.49c-7.33,1.33-9,5.69-8.15,13.35,1,9.57,4.35,15.91,13.16,12.22C134.94,209.06,130.15,186.28,118,188.49Z" style="fill:#b97964"></path><path d="M114.48,200.57a15.64,15.64,0,0,1-1.59,3.43,2.07,2.07,0,0,0,2.09.48Z" style="fill:#a24e3f"></path><path d="M118.86,199.15c.1.61.5,1,.9,1s.66-.6.56-1.21-.5-1-.9-1S118.77,198.55,118.86,199.15Z" style="fill:#2e353a"></path><path d="M119.59,198l-1.39-.31S119,198.64,119.59,198Z" style="fill:#2e353a"></path><path d="M111.32,200.21c.09.61.5,1,.9,1s.65-.6.56-1.21-.5-1-.91-1S111.22,199.6,111.32,200.21Z" style="fill:#2e353a"></path><path d="M112.05,199l-1.4-.31S111.48,199.7,112.05,199Z" style="fill:#2e353a"></path><path d="M121.4,194.92a.33.33,0,0,1-.21-.07,3.59,3.59,0,0,0-3.08-.48.3.3,0,0,1-.39-.2.31.31,0,0,1,.2-.4,4.18,4.18,0,0,1,3.69.59.32.32,0,0,1-.21.56Z" style="fill:#2e353a"></path><path d="M109.81,196.18a.32.32,0,0,1-.22-.55,3.77,3.77,0,0,1,3.09-1.21.31.31,0,1,1-.11.62h0a3.16,3.16,0,0,0-2.54,1.05A.31.31,0,0,1,109.81,196.18Z" style="fill:#2e353a"></path><path d="M116.57,207.17a18.44,18.44,0,0,1,1.32,2.39l.47-.12c2.09-.61,2.87-1.58,3.09-2.48a2.68,2.68,0,0,0,0-1.33,2.65,2.65,0,0,0-.27-.71,10.19,10.19,0,0,1-3.87,2C116.85,207.1,116.57,207.17,116.57,207.17Z" style="fill:#2e353a"></path><path d="M117.28,207l.41.7c2-.57,3.29-1.24,3.73-2a2.65,2.65,0,0,0-.27-.71A10.19,10.19,0,0,1,117.28,207Z" style="fill:#fff"></path><path d="M118.36,209.44c2.09-.61,2.87-1.58,3.09-2.48a7.12,7.12,0,0,0-2.2,1.14A2.59,2.59,0,0,0,118.36,209.44Z" style="fill:#de5753"></path><path d="M128.23,199.41s-4.53-5.41-4.85-10.16c0,0-15.62-3.31-13.66,11.58,0,0-3.8-12.85,8.76-15.42s15.86,15.88,10.34,22.56C128.82,208,131,202.79,128.23,199.41Z" style="fill:#2e353a"></path><path d="M127.31,201.17a3.27,3.27,0,0,1,2.93-3.57c2.32-.16,4.25,4.31-1.2,6.46C128.26,204.37,127.65,203.66,127.31,201.17Z" style="fill:#b97964"></path><path d="M134.86,264.2c-1.23,3,.33,8.9.33,8.9l6.89-1.92s.16-5.78-4.23-7.63C137.85,263.55,135.2,263.4,134.86,264.2Z" style="fill:#b97964"></path><polygon points="138.48 277.91 143.27 275.25 142.08 271.18 135.19 273.1 138.48 277.91" style="fill:#b97964"></polygon><path d="M144.55,225.89a99.45,99.45,0,0,1,15.84,20.52c2.16,4.56-2.36,8.09-5.38,10.48a99.11,99.11,0,0,1-17.33,10,2.1,2.1,0,0,1-2.1-3.61c3.44-2.54,6.9-5.14,10.21-7.75,2.66-2.24,6-4.64,7.71-7.36a2.51,2.51,0,0,0,.29,2l-.19-.26a160,160,0,0,0-15-18.1c-3.65-4,2-9.62,6-5.94Z" style="fill:#b97864"></path><path d="M140,221.65s6.49,1.47,12.09,10.22l-8.35,12L137,238.9S132.24,228.11,140,221.65Z" style="fill:#3D287E"></path><path d="M140,221.65s6.49,1.47,12.09,10.22l-8.35,12L137,238.9S132.24,228.11,140,221.65Z" style="fill:#fff;isolation:isolate;opacity:0.7000000000000001"></path><path d="M99.36,406.79c0-.6-7.29-.13-7.29-.13s-4.47,4.55-8.81,5.57-1.92,3.63,2.94,3.63h12C101.66,415.86,99.5,412.92,99.36,406.79Z" style="fill:#fff;isolation:isolate;opacity:0.7000000000000001"></path><path d="M120.72,350.24c-.59,0-.72,7.25-.72,7.25s4.17,4.83,4.84,9.24,3.46,2.2,3.85-2.63.7-8.54,1-12S126.85,350.6,120.72,350.24Z" style="fill:#fff;isolation:isolate;opacity:0.7000000000000001"></path></g></svg>
