<svg xmlns="http://www.w3.org/2000/svg" viewBox="0 0 500 500"><g id="freepik--background-complete--inject-1"><rect y="382.4" width="500" height="0.25" style="fill:#ebebeb"></rect><rect x="423.67" y="398.49" width="26.23" height="0.25" style="fill:#ebebeb"></rect><rect x="322.53" y="395.24" width="34.23" height="0.25" style="fill:#ebebeb"></rect><rect x="389.33" y="389.21" width="26.44" height="0.25" style="fill:#ebebeb"></rect><rect x="67.7" y="390.89" width="43.19" height="0.25" style="fill:#ebebeb"></rect><rect x="52.46" y="390.89" width="6.33" height="0.25" style="fill:#ebebeb"></rect><rect x="131.47" y="395.11" width="56.2" height="0.25" style="fill:#ebebeb"></rect><path d="M237,337.8H43.91a5.71,5.71,0,0,1-5.7-5.71V60.66A5.71,5.71,0,0,1,43.91,55H237a5.71,5.71,0,0,1,5.71,5.71V332.09A5.71,5.71,0,0,1,237,337.8ZM43.91,55.2a5.46,5.46,0,0,0-5.45,5.46V332.09a5.46,5.46,0,0,0,5.45,5.46H237a5.47,5.47,0,0,0,5.46-5.46V60.66A5.47,5.47,0,0,0,237,55.2Z" style="fill:#ebebeb"></path><path d="M453.31,337.8H260.21a5.72,5.72,0,0,1-5.71-5.71V60.66A5.72,5.72,0,0,1,260.21,55h193.1A5.71,5.71,0,0,1,459,60.66V332.09A5.71,5.71,0,0,1,453.31,337.8ZM260.21,55.2a5.47,5.47,0,0,0-5.46,5.46V332.09a5.47,5.47,0,0,0,5.46,5.46h193.1a5.47,5.47,0,0,0,5.46-5.46V60.66a5.47,5.47,0,0,0-5.46-5.46Z" style="fill:#ebebeb"></path><rect x="66.62" y="83.46" width="271.32" height="155.44" style="fill:#e6e6e6"></rect><rect x="68.51" y="83.46" width="273.47" height="155.44" style="fill:#f0f0f0"></rect><rect x="133.87" y="30.09" width="142.75" height="262.17" transform="translate(366.42 -44.07) rotate(90)" style="fill:#fafafa"></rect><polygon points="106.34 232.55 139.49 89.8 182.96 89.8 149.8 232.55 106.34 232.55" style="fill:#fff"></polygon><polygon points="156.84 232.55 189.99 89.8 209.62 89.8 176.47 232.55 156.84 232.55" style="fill:#fff"></polygon><polygon points="234.72 232.55 267.88 89.8 301.41 89.8 268.25 232.55 234.72 232.55" style="fill:#fff"></polygon><rect x="264.6" y="160.82" width="142.75" height="0.72" transform="translate(497.15 -174.79) rotate(90)" style="fill:#e6e6e6"></rect><rect x="197.1" y="83.46" width="16.3" height="155.44" style="fill:#f0f0f0"></rect><rect x="125.36" y="160.82" width="142.75" height="0.72" transform="translate(357.92 -35.56) rotate(90)" style="fill:#e6e6e6"></rect><rect x="204.96" y="83.46" width="0.57" height="155.44" style="fill:#e6e6e6"></rect><g style="opacity:0.7000000000000001"><rect x="321.4" y="75.22" width="26.08" height="125.16" transform="translate(668.88 275.61) rotate(180)" style="fill:#ebebeb"></rect><rect x="304.51" y="75.22" width="16.89" height="110.55" style="fill:#e0e0e0"></rect><rect x="278.43" y="75.22" width="26.08" height="125.16" transform="translate(582.94 275.61) rotate(180)" style="fill:#ebebeb"></rect><rect x="261.54" y="75.22" width="16.89" height="110.55" style="fill:#e0e0e0"></rect><rect x="235.46" y="75.22" width="26.08" height="125.16" transform="translate(497 275.61) rotate(180)" style="fill:#ebebeb"></rect><rect x="218.57" y="75.22" width="16.89" height="110.55" style="fill:#e0e0e0"></rect><rect x="192.49" y="75.22" width="26.08" height="125.16" transform="translate(411.06 275.61) rotate(180)" style="fill:#ebebeb"></rect><rect x="175.6" y="75.22" width="16.89" height="110.55" style="fill:#e0e0e0"></rect><rect x="149.52" y="75.22" width="26.08" height="125.16" transform="translate(325.12 275.61) rotate(180)" style="fill:#ebebeb"></rect><rect x="132.63" y="75.22" width="16.89" height="110.55" style="fill:#e0e0e0"></rect><rect x="106.55" y="75.22" width="26.08" height="125.16" transform="translate(239.18 275.61) rotate(180)" style="fill:#ebebeb"></rect><rect x="63.58" y="75.22" width="26.08" height="125.16" transform="translate(153.24 275.61) rotate(180)" style="fill:#ebebeb"></rect><rect x="89.66" y="75.22" width="16.89" height="110.55" style="fill:#e0e0e0"></rect></g><rect x="399.64" y="284.33" width="33.55" height="98.07" style="fill:#e6e6e6"></rect><polygon points="424.22 382.4 433.18 382.4 433.18 365.48 414.83 365.48 424.22 382.4" style="fill:#f5f5f5"></polygon><rect x="194.46" y="284.33" width="33.55" height="98.07" style="fill:#e6e6e6"></rect><rect x="220.19" y="284.33" width="212.99" height="92.24" style="fill:#f5f5f5"></rect><polygon points="229.14 382.4 220.19 382.4 220.19 365.48 238.54 365.48 229.14 382.4" style="fill:#f5f5f5"></polygon><rect x="227.14" y="292.42" width="199.1" height="34.14" style="fill:#e6e6e6"></rect><rect x="227.14" y="333.87" width="199.1" height="34.14" style="fill:#e6e6e6"></rect><rect x="396.04" y="128.41" width="51.27" height="8.22" transform="translate(843.34 265.04) rotate(180)" style="fill:#f0f0f0"></rect><rect x="371.59" y="128.41" width="24.45" height="8.22" style="fill:#e6e6e6"></rect><polygon points="396.98 136.63 421.67 136.63 403.67 148.38 396.98 148.38 396.98 136.63" style="fill:#ebebeb"></polygon><polygon points="394.4 136.63 419.09 136.63 401.09 148.38 394.4 148.38 394.4 136.63" style="fill:#e0e0e0"></polygon><rect x="415.3" y="93.2" width="16.05" height="35.2" transform="translate(846.65 221.61) rotate(180)" style="fill:#e6e6e6"></rect><rect x="431.35" y="93.2" width="4.64" height="35.2" style="fill:#f0f0f0"></rect><polygon points="394.62 96.31 415.3 96.31 420.29 128.41 399.6 128.41 394.62 96.31" style="fill:#e6e6e6"></polygon><polygon points="421.28 96.31 415.3 96.31 420.29 128.41 426.27 128.41 421.28 96.31" style="fill:#f0f0f0"></polygon><rect x="385.08" y="92.03" width="23.44" height="36.38" transform="translate(793.6 220.44) rotate(180)" style="fill:#ebebeb"></rect><rect x="408.52" y="92.03" width="6.78" height="36.38" style="fill:#f5f5f5"></rect><path d="M403.08,128.41h-1v-21.9a6.89,6.89,0,1,0-13.78,0v21.9h-1v-21.9a7.89,7.89,0,1,1,15.78,0Z" style="fill:#e0e0e0"></path><rect x="396.04" y="199.71" width="51.27" height="8.22" transform="translate(843.34 407.65) rotate(180)" style="fill:#f0f0f0"></rect><rect x="371.59" y="199.71" width="24.45" height="8.22" style="fill:#e6e6e6"></rect><polygon points="396.98 207.93 421.67 207.93 403.67 219.69 396.98 219.69 396.98 207.93" style="fill:#ebebeb"></polygon><polygon points="394.4 207.93 419.09 207.93 401.09 219.69 394.4 219.69 394.4 207.93" style="fill:#e0e0e0"></polygon><rect x="409.83" y="173.68" width="23.44" height="26.03" transform="translate(843.1 373.39) rotate(180)" style="fill:#e0e0e0"></rect><rect x="433.27" y="173.68" width="6.01" height="26.03" style="fill:#f0f0f0"></rect><rect x="402.58" y="166.32" width="20.09" height="33.39" transform="translate(825.25 366.03) rotate(180)" style="fill:#e0e0e0"></rect><rect x="422.67" y="166.32" width="4.09" height="33.39" style="fill:#ebebeb"></rect><rect x="396.1" y="169.67" width="17.61" height="30.05" transform="translate(809.81 369.38) rotate(180)" style="fill:#e6e6e6"></rect><rect x="413.71" y="169.67" width="5.09" height="30.05" style="fill:#f0f0f0"></rect><rect x="385.08" y="173.68" width="23.44" height="26.03" transform="translate(793.6 373.39) rotate(180)" style="fill:#f0f0f0"></rect><rect x="408.52" y="173.68" width="3.39" height="26.03" style="fill:#fafafa"></rect><path d="M403.08,199.71h-1V177.82a6.89,6.89,0,0,0-13.78,0v21.89h-1V177.82a7.89,7.89,0,0,1,15.78,0Z" style="fill:#e0e0e0"></path><rect x="143.07" y="300.72" width="8.63" height="81.68" style="fill:#f5f5f5"></rect><rect x="147.95" y="300.72" width="7.51" height="81.68" style="fill:#f0f0f0"></rect><rect x="56.06" y="300.72" width="8.63" height="81.68" style="fill:#f5f5f5"></rect><rect x="60.94" y="300.72" width="7.51" height="81.68" style="fill:#f0f0f0"></rect><rect x="175.79" y="300.72" width="8.63" height="81.68" style="fill:#f5f5f5"></rect><rect x="180.66" y="300.72" width="7.51" height="81.68" style="fill:#f0f0f0"></rect><rect x="88.78" y="300.72" width="8.63" height="81.68" style="fill:#f5f5f5"></rect><rect x="56.06" y="292.42" width="132.11" height="10.36" transform="translate(244.24 595.2) rotate(180)" style="fill:#f0f0f0"></rect><rect x="56.06" y="292.42" width="37.59" height="10.36" transform="translate(149.72 595.2) rotate(180)" style="fill:#e6e6e6"></rect><rect x="93.66" y="300.72" width="7.51" height="81.68" style="fill:#f0f0f0"></rect></g><g id="freepik--Shadow--inject-1"><ellipse id="freepik--path--inject-1" cx="250" cy="416.24" rx="193.89" ry="11.32" style="fill:#f5f5f5"></ellipse></g><g id="freepik--Books--inject-1"><path d="M191.56,366.35H391.5a0,0,0,0,1,0,0v50.14a0,0,0,0,1,0,0H191.56a3.88,3.88,0,0,1-3.88-3.88V370.23A3.88,3.88,0,0,1,191.56,366.35Z" transform="translate(579.19 782.84) rotate(180)" style="fill:#6D41EE"></path><path d="M191.56,366.35H391.5a0,0,0,0,1,0,0v50.14a0,0,0,0,1,0,0H191.56a3.88,3.88,0,0,1-3.88-3.88V370.23A3.88,3.88,0,0,1,191.56,366.35Z" transform="translate(579.19 782.84) rotate(180)" style="opacity:0.2"></path><rect x="236.7" y="366.35" width="30.59" height="50.14" transform="translate(504 782.84) rotate(180)" style="opacity:0.2"></rect><rect x="280.44" y="366.35" width="15.51" height="50.14" transform="translate(576.39 782.84) rotate(180)" style="opacity:0.2"></rect><path d="M121.46,366.35h66.22a0,0,0,0,1,0,0v50.14a0,0,0,0,1,0,0H121.46a3.9,3.9,0,0,1-3.9-3.9V370.25A3.9,3.9,0,0,1,121.46,366.35Z" style="fill:#6D41EE"></path><path d="M117.56,371.74h57.93a5.09,5.09,0,0,1,5.09,5.09V406a5.09,5.09,0,0,1-5.09,5.09H117.56a0,0,0,0,1,0,0V371.74A0,0,0,0,1,117.56,371.74Z" style="fill:#fff;opacity:0.9"></path><circle cx="363.49" cy="391.42" r="14.34" style="opacity:0.2"></circle><path d="M206,330H406a0,0,0,0,1,0,0v36.39a0,0,0,0,1,0,0H206a3.88,3.88,0,0,1-3.88-3.88V333.84A3.88,3.88,0,0,1,206,330Z" transform="translate(608.11 696.31) rotate(180)" style="fill:#263238"></path><path d="M206,330H406a0,0,0,0,1,0,0v36.39a0,0,0,0,1,0,0H206a3.88,3.88,0,0,1-3.88-3.88V333.84A3.88,3.88,0,0,1,206,330Z" transform="translate(608.11 696.31) rotate(180)" style="opacity:0.2"></path><path d="M135.93,330h66.22a0,0,0,0,1,0,0v36.39a0,0,0,0,1,0,0H135.93a3.9,3.9,0,0,1-3.9-3.9V333.86A3.9,3.9,0,0,1,135.93,330Z" style="fill:#263238"></path><path d="M132,335.35H190a5.09,5.09,0,0,1,5.09,5.09v15.45A5.09,5.09,0,0,1,190,361H132a0,0,0,0,1,0,0V335.35A0,0,0,0,1,132,335.35Z" style="fill:#fff;opacity:0.9"></path><rect x="239.83" y="338.58" width="148.28" height="19.16" rx="4.19" transform="translate(627.93 696.31) rotate(180)" style="fill:#6D41EE;opacity:0.30000000000000004"></rect><rect x="209.74" y="329.96" width="5.31" height="36.39" transform="translate(424.79 696.31) rotate(180)" style="fill:#6D41EE;opacity:0.30000000000000004"></rect><rect x="219.44" y="329.96" width="5.31" height="36.39" transform="translate(444.18 696.31) rotate(180)" style="fill:#6D41EE;opacity:0.30000000000000004"></rect><path d="M183.92,292.42H383.85a0,0,0,0,1,0,0V330a0,0,0,0,1,0,0H183.92a3.88,3.88,0,0,1-3.88-3.88V296.3A3.88,3.88,0,0,1,183.92,292.42Z" transform="translate(563.89 622.38) rotate(180)" style="fill:#6D41EE"></path><path d="M183.92,292.42H383.85a0,0,0,0,1,0,0V330a0,0,0,0,1,0,0H183.92a3.88,3.88,0,0,1-3.88-3.88V296.3A3.88,3.88,0,0,1,183.92,292.42Z" transform="translate(563.89 622.38) rotate(180)" style="opacity:0.30000000000000004"></path><rect x="229.05" y="292.42" width="69.42" height="37.54" transform="translate(527.53 622.38) rotate(180)" style="fill:#fff;opacity:0.9"></rect><rect x="328.29" y="292.42" width="35.2" height="37.54" transform="translate(691.79 622.38) rotate(180)" style="fill:#fff;opacity:0.9"></rect><path d="M113.82,292.42H180a0,0,0,0,1,0,0V330a0,0,0,0,1,0,0H113.82a3.9,3.9,0,0,1-3.9-3.9V296.32A3.9,3.9,0,0,1,113.82,292.42Z" style="fill:#6D41EE"></path><path d="M109.92,297.8h57.93a5.09,5.09,0,0,1,5.09,5.09v16.59a5.09,5.09,0,0,1-5.09,5.09H109.92a0,0,0,0,1,0,0V297.8A0,0,0,0,1,109.92,297.8Z" style="fill:#fff;opacity:0.9"></path><path d="M198.38,267.52H398.31a0,0,0,0,1,0,0v24.9a0,0,0,0,1,0,0H198.38a3.88,3.88,0,0,1-3.88-3.88V271.4A3.88,3.88,0,0,1,198.38,267.52Z" transform="translate(592.81 559.94) rotate(180)" style="fill:#6D41EE"></path><path d="M198.38,267.52H398.31a0,0,0,0,1,0,0v24.9a0,0,0,0,1,0,0H198.38a3.88,3.88,0,0,1-3.88-3.88V271.4A3.88,3.88,0,0,1,198.38,267.52Z" transform="translate(592.81 559.94) rotate(180)" style="fill:#fff;opacity:0.30000000000000004"></path><path d="M198.38,267.52H398.31a0,0,0,0,1,0,0v24.9a0,0,0,0,1,0,0H198.38a3.88,3.88,0,0,1-3.88-3.88V271.4A3.88,3.88,0,0,1,198.38,267.52Z" transform="translate(592.81 559.94) rotate(180)" style="opacity:0.2"></path><path d="M128.28,267.52H194.5a0,0,0,0,1,0,0v24.9a0,0,0,0,1,0,0H128.28a3.9,3.9,0,0,1-3.9-3.9v-17.1A3.9,3.9,0,0,1,128.28,267.52Z" style="fill:#6D41EE"></path><path d="M128.28,267.52H194.5a0,0,0,0,1,0,0v24.9a0,0,0,0,1,0,0H128.28a3.9,3.9,0,0,1-3.9-3.9v-17.1A3.9,3.9,0,0,1,128.28,267.52Z" style="fill:#fff;opacity:0.30000000000000004"></path><path d="M124.38,272.91H182.3a5.09,5.09,0,0,1,5.09,5.09v4A5.09,5.09,0,0,1,182.3,287H124.38a0,0,0,0,1,0,0V272.91A0,0,0,0,1,124.38,272.91Z" style="fill:#fff;opacity:0.9"></path><rect x="212.4" y="274.08" width="90.62" height="11.77" transform="translate(515.41 559.94) rotate(180)" style="fill:#263238;opacity:0.4"></rect><path d="M228.9,259.28h28.59a0,0,0,0,1,0,0v8.25a0,0,0,0,1,0,0H228.9a.64.64,0,0,1-.64-.64v-7A.64.64,0,0,1,228.9,259.28Z" style="fill:#6D41EE"></path><path d="M228.9,259.28h28.59a0,0,0,0,1,0,0v8.25a0,0,0,0,1,0,0H228.9a.64.64,0,0,1-.64-.64v-7A.64.64,0,0,1,228.9,259.28Z" style="opacity:0.2"></path><path d="M258.14,259.28H269a0,0,0,0,1,0,0v8.25a0,0,0,0,1,0,0h-10.9a.64.64,0,0,1-.64-.64v-7A.64.64,0,0,1,258.14,259.28Z" transform="translate(526.53 526.82) rotate(180)" style="fill:#6D41EE"></path><path d="M258.66,260.17h9.53a.84.84,0,0,1,.84.84v4.8a.84.84,0,0,1-.84.84h-9.53a0,0,0,0,1,0,0v-6.48A0,0,0,0,1,258.66,260.17Z" transform="translate(527.7 526.82) rotate(180)" style="fill:#fff;opacity:0.9"></path><path d="M226.52,253.29h28.59a0,0,0,0,1,0,0v6a0,0,0,0,1,0,0H226.52a.64.64,0,0,1-.64-.64v-4.71A.64.64,0,0,1,226.52,253.29Z" style="fill:#263238"></path><path d="M226.52,253.29h28.59a0,0,0,0,1,0,0v6a0,0,0,0,1,0,0H226.52a.64.64,0,0,1-.64-.64v-4.71A.64.64,0,0,1,226.52,253.29Z" style="opacity:0.2"></path><path d="M255.76,253.29h10.9a0,0,0,0,1,0,0v6a0,0,0,0,1,0,0h-10.9a.64.64,0,0,1-.64-.64v-4.71A.64.64,0,0,1,255.76,253.29Z" transform="translate(521.77 512.58) rotate(180)" style="fill:#263238"></path><path d="M256.28,254.18h9.53a.84.84,0,0,1,.84.84v2.54a.84.84,0,0,1-.84.84h-9.53a0,0,0,0,1,0,0v-4.22A0,0,0,0,1,256.28,254.18Z" transform="translate(522.94 512.58) rotate(180)" style="fill:#fff;opacity:0.9"></path><path d="M230.16,247.12h28.59a0,0,0,0,1,0,0v6.18a0,0,0,0,1,0,0H230.16a.64.64,0,0,1-.64-.64v-4.9A.64.64,0,0,1,230.16,247.12Z" style="fill:#6D41EE"></path><path d="M230.16,247.12h28.59a0,0,0,0,1,0,0v6.18a0,0,0,0,1,0,0H230.16a.64.64,0,0,1-.64-.64v-4.9A.64.64,0,0,1,230.16,247.12Z" style="opacity:0.30000000000000004"></path><path d="M259.39,247.12h10.9a0,0,0,0,1,0,0v6.18a0,0,0,0,1,0,0h-10.9a.64.64,0,0,1-.64-.64v-4.89A.64.64,0,0,1,259.39,247.12Z" transform="translate(529.04 500.41) rotate(180)" style="fill:#6D41EE"></path><path d="M259.92,248h9.53a.84.84,0,0,1,.84.84v2.73a.84.84,0,0,1-.84.84h-9.53a0,0,0,0,1,0,0V248A0,0,0,0,1,259.92,248Z" transform="translate(530.21 500.41) rotate(180)" style="fill:#fff;opacity:0.9"></path><path d="M227.78,243h28.59a0,0,0,0,1,0,0v4.1a0,0,0,0,1,0,0H227.78a.64.64,0,0,1-.64-.64v-2.82A.64.64,0,0,1,227.78,243Z" style="fill:#6D41EE"></path><path d="M227.78,243h28.59a0,0,0,0,1,0,0v4.1a0,0,0,0,1,0,0H227.78a.64.64,0,0,1-.64-.64v-2.82A.64.64,0,0,1,227.78,243Z" style="fill:#fff;opacity:0.30000000000000004"></path><path d="M227.78,243h28.59a0,0,0,0,1,0,0v4.1a0,0,0,0,1,0,0H227.78a.64.64,0,0,1-.64-.64v-2.82A.64.64,0,0,1,227.78,243Z" style="opacity:0.2"></path><path d="M257,243h10.9a0,0,0,0,1,0,0v4.1a0,0,0,0,1,0,0H257a.64.64,0,0,1-.64-.64v-2.81A.64.64,0,0,1,257,243Z" transform="translate(524.28 490.14) rotate(180)" style="fill:#6D41EE"></path><path d="M257,243h10.9a0,0,0,0,1,0,0v4.1a0,0,0,0,1,0,0H257a.64.64,0,0,1-.64-.64v-2.81A.64.64,0,0,1,257,243Z" transform="translate(524.28 490.14) rotate(180)" style="fill:#fff;opacity:0.30000000000000004"></path><path d="M257.54,243.91h9.53a.84.84,0,0,1,.84.84v.65a.84.84,0,0,1-.84.84h-9.53a0,0,0,0,1,0,0v-2.32A0,0,0,0,1,257.54,243.91Z" transform="translate(525.45 490.14) rotate(180)" style="fill:#fff;opacity:0.9"></path><path d="M226.52,237h28.59a0,0,0,0,1,0,0v6a0,0,0,0,1,0,0H226.52a.64.64,0,0,1-.64-.64v-4.71A.64.64,0,0,1,226.52,237Z" style="fill:#263238"></path><path d="M226.52,237h28.59a0,0,0,0,1,0,0v6a0,0,0,0,1,0,0H226.52a.64.64,0,0,1-.64-.64v-4.71A.64.64,0,0,1,226.52,237Z" style="opacity:0.2"></path><path d="M255.76,237H263a0,0,0,0,1,0,0v6a0,0,0,0,1,0,0h-7.27a.64.64,0,0,1-.64-.64v-4.71A.64.64,0,0,1,255.76,237Z" transform="translate(518.14 480.05) rotate(180)" style="fill:#263238"></path><path d="M256.28,237.92h5.9a.84.84,0,0,1,.84.84v2.54a.84.84,0,0,1-.84.84h-5.9a0,0,0,0,1,0,0v-4.22A0,0,0,0,1,256.28,237.92Z" transform="translate(519.31 480.05) rotate(180)" style="fill:#fff;opacity:0.9"></path><path d="M230.16,230.85h28.59a0,0,0,0,1,0,0V237a0,0,0,0,1,0,0H230.16a.64.64,0,0,1-.64-.64v-4.9A.64.64,0,0,1,230.16,230.85Z" style="fill:#6D41EE"></path><path d="M230.16,230.85h28.59a0,0,0,0,1,0,0V237a0,0,0,0,1,0,0H230.16a.64.64,0,0,1-.64-.64v-4.9A.64.64,0,0,1,230.16,230.85Z" style="opacity:0.30000000000000004"></path><path d="M259.39,230.85h7.27a0,0,0,0,1,0,0V237a0,0,0,0,1,0,0h-7.27a.64.64,0,0,1-.64-.64v-4.89A.64.64,0,0,1,259.39,230.85Z" transform="translate(525.41 467.88) rotate(180)" style="fill:#6D41EE"></path><path d="M259.92,231.74h5.9a.84.84,0,0,1,.84.84v2.73a.84.84,0,0,1-.84.84h-5.9a0,0,0,0,1,0,0v-4.41A0,0,0,0,1,259.92,231.74Z" transform="translate(526.58 467.88) rotate(180)" style="fill:#fff;opacity:0.9"></path><path d="M227.78,226.76h28.59a0,0,0,0,1,0,0v4.1a0,0,0,0,1,0,0H227.78a.64.64,0,0,1-.64-.64v-2.82A.64.64,0,0,1,227.78,226.76Z" style="fill:#6D41EE"></path><path d="M227.78,226.76h28.59a0,0,0,0,1,0,0v4.1a0,0,0,0,1,0,0H227.78a.64.64,0,0,1-.64-.64v-2.82A.64.64,0,0,1,227.78,226.76Z" style="fill:#fff;opacity:0.30000000000000004"></path><path d="M227.78,226.76h28.59a0,0,0,0,1,0,0v4.1a0,0,0,0,1,0,0H227.78a.64.64,0,0,1-.64-.64v-2.82A.64.64,0,0,1,227.78,226.76Z" style="opacity:0.2"></path><path d="M257,226.76h7.27a0,0,0,0,1,0,0v4.1a0,0,0,0,1,0,0H257a.64.64,0,0,1-.64-.64V227.4A.64.64,0,0,1,257,226.76Z" transform="translate(520.65 457.61) rotate(180)" style="fill:#6D41EE"></path><path d="M257,226.76h7.27a0,0,0,0,1,0,0v4.1a0,0,0,0,1,0,0H257a.64.64,0,0,1-.64-.64V227.4A.64.64,0,0,1,257,226.76Z" transform="translate(520.65 457.61) rotate(180)" style="fill:#fff;opacity:0.30000000000000004"></path><path d="M257.54,227.64h5.9a.84.84,0,0,1,.84.84v.65a.84.84,0,0,1-.84.84h-5.9a0,0,0,0,1,0,0v-2.32A0,0,0,0,1,257.54,227.64Z" transform="translate(521.82 457.61) rotate(180)" style="fill:#fff;opacity:0.9"></path></g></svg>